<?xml version="1.0" encoding="UTF-8"?>
<svg xmlns="http://www.w3.org/2000/svg" version="1.1" viewBox="0 0 411.8 56.5">
  <defs>
    <style>
      .cls-1 {
        fill: #2962ff;
      }
    </style>
  </defs>
  <!-- Generator: Adobe Illustrator 28.6.0, SVG Export Plug-In . SVG Version: 1.2.0 Build 709)  -->
  <g>
    <g id="Layer_1">
      <path class="cls-1" d="M4.6,8.4h15.7c1.7,0,3.3.3,4.8.8,1.4.5,2.8,1.3,3.8,2.3s2,2.1,2.6,3.3.9,2.6.9,4.1-.5,3.9-1.6,5.4c-1,1.4-2.3,2.6-3.8,3.2v.4c2.1.7,3.7,2,5,3.5,1.2,1.7,1.9,3.5,1.9,5.9s-.3,3.2-1,4.7c-.7,1.3-1.7,2.6-2.9,3.5-1.1,1-2.6,1.7-4.1,2.3s-3.3.7-5.1.7H4.5V8.4s.1,0,.1,0ZM19.7,24.9c1.8,0,3.1-.4,4.1-1.3.9-.9,1.3-2.1,1.3-3.4s-.4-2.4-1.3-3.3c-.9-.9-2.3-1.3-3.8-1.3h-7.8v9.6h7.5v-.2h-.1ZM20.5,41.6c2,0,3.3-.4,4.4-1.3,1-.9,1.6-2.2,1.6-3.6s-.5-2.7-1.6-3.7-2.6-1.4-4.6-1.4h-8.2v10.2h8.4-.1Z"/>
      <path class="cls-1" d="M60.3,8.4h14.6c2,0,3.8.3,5.5.9,1.7.6,3.1,1.6,4.2,2.6s2.1,2.5,2.7,4,.9,3.2.9,5.1-.2,2.6-.7,3.8-1,2.3-1.9,3.2-1.7,1.8-2.8,2.6c-1,.7-2.2,1.3-3.3,1.7v.4l10.7,15.4v.4h-8.6l-10.3-15.1h-3.5v15.1h-7.5V8.4h.1ZM74.9,26.6c1.7,0,3.1-.5,4.2-1.6,1-1,1.7-2.4,1.7-3.9s0-1.3-.4-2.1c-.2-.7-.6-1.2-1-1.8s-1-.9-1.9-1.2c-.7-.3-1.6-.4-2.5-.4h-7.1v11.2h7s0-.2,0-.2Z"/>
      <path class="cls-1" d="M117.9,8.4h7.5v40.1h-7.5V8.4Z"/>
      <path class="cls-1" d="M328.5,15.7v9.3h16v7.1h-16v9.3h17.9v7.1h-25.4V8.4h25.4v7.1h-17.9Z"/>
      <path class="cls-1" d="M263.1,8.4h25.4v7.1h-17.9v9.7h16v7.1h-16v16h-7.5V8.4h0Z"/>
      <path class="cls-1" d="M377.8,8.4h14.6c2,0,3.8.3,5.5.9,1.7.6,3.1,1.6,4.2,2.6s2.1,2.5,2.7,4,.9,3.2.9,5.1-.2,2.6-.7,3.8-1,2.3-1.9,3.2-1.7,1.8-2.8,2.6c-1,.7-2.2,1.3-3.3,1.7v.4l10.7,15.4v.4h-8.7l-10.3-15.1h-3.5v15.1h-7.5V8.4h.2ZM392.3,26.6c1.7,0,3.1-.5,4.2-1.6,1-1,1.7-2.4,1.7-3.9s-.1-1.3-.4-2.1c-.2-.7-.6-1.2-1-1.8s-1-.9-1.9-1.2c-.7-.3-1.6-.4-2.5-.4h-7.1v11.2h7v-.2h0Z"/>
      <rect class="cls-1" x="162.1" y="8.4" width="65.6" height="6.9"/>
      <g>
        <polygon class="cls-1" points="169.8 32.1 173.1 32.1 227.5 32.1 227.5 24.9 169.8 24.9 169.8 24.9 162.1 24.9 162.1 32.1 169.8 32.1"/>
        <polygon class="cls-1" points="169.8 41.4 169.8 41.3 162.1 41.3 162.1 48.6 227.8 48.6 227.8 41.4 169.8 41.4"/>
      </g>
    </g>
  </g>
</svg>