<?xml version="1.0" encoding="UTF-8"?>
<svg xmlns="http://www.w3.org/2000/svg" version="1.1" viewBox="0 0 411.8 56.5">
  <defs>
    <style>
      .cls-1 {
        display: none;
      }

      .cls-2 {
        fill: #2962ff;
      }
    </style>
  </defs>
  <!-- Generator: Adobe Illustrator 28.6.0, SVG Export Plug-In . SVG Version: 1.2.0 Build 709)  -->
  <g>
    <g id="Layer_1">
      <g id="Layer_1-2" data-name="Layer_1" class="cls-1">
        <path d="M4.5-13.4h25c2.7,0,5.3.4,7.7,1.3,2.4.9,4.5,2.1,6.2,3.6,1.8,1.5,3.1,3.3,4.2,5.3,1,2,1.5,4.2,1.5,6.5,0,3.4-.8,6.2-2.5,8.5-1.6,2.3-3.7,4-6.1,5.2v.7c3.3,1.2,5.9,3.1,7.9,5.6s3,5.7,3,9.4-.6,5.2-1.7,7.4c-1.1,2.2-2.6,4-4.5,5.6-1.9,1.5-4.1,2.7-6.7,3.6-2.5.8-5.3,1.3-8.2,1.3H4.5V-13.4ZM28.6,12.7c2.8,0,5-.8,6.5-2.3s2.3-3.3,2.3-5.4-.7-3.9-2.2-5.4-3.5-2.2-6.2-2.2h-12.4v15.3s12,0,12,0ZM30,39.6c3,0,5.4-.8,7-2.3s2.4-3.5,2.4-5.9-.8-4.4-2.5-5.9c-1.6-1.6-4.1-2.4-7.3-2.4h-13v16.4h13.4Z"/>
        <path d="M78.6-13.4h23.3c3.2,0,6.1.5,8.8,1.5,2.6,1,4.9,2.4,6.7,4.2,1.9,1.8,3.3,3.9,4.3,6.4s1.5,5.2,1.5,8.1-.4,4.2-1.1,6c-.7,1.9-1.7,3.6-2.9,5.1-1.3,1.5-2.7,2.9-4.4,4-1.7,1.2-3.4,2.1-5.3,2.7v.6c0,0,17.1,24.6,17.1,24.6v.7h-13.9l-16.5-24h-5.6v24h-12s0-63.9,0-63.9ZM101.8,15.5c2.7,0,5-.8,6.7-2.5,1.8-1.7,2.6-3.8,2.6-6.3s-.2-2.2-.6-3.3-1-2-1.7-2.9c-.8-.8-1.7-1.5-2.9-2-1.2-.5-2.5-.8-4-.8h-11.2V15.5s11.1,0,11.1,0Z"/>
        <path d="M151.9-13.4h12.1v64h-12.1V-13.4Z"/>
        <path d="M206.8-1.9v14.8h25.7v11.4h-25.7v14.8h28.5v11.4h-40.6V-13.5h40.6V-2.1h-28.5v.2h0Z"/>
        <path d="M264.3-13.4h40.6V-2h-28.5v15.6h25.6v11.4h-25.7v25.6h-12.1V-13.4s.1,0,.1,0Z"/>
        <path d="M401.6-13.4h23.3c3.2,0,6.1.5,8.8,1.5,2.6,1,4.9,2.4,6.7,4.2s3.3,3.9,4.3,6.4,1.5,5.2,1.5,8.1-.4,4.2-1.1,6c-.7,1.9-1.7,3.6-3,5.1s-2.7,2.9-4.4,4c-1.7,1.2-3.4,2.1-5.3,2.7v.6c-.1,0,17.1,24.6,17.1,24.6v.7h-13.9l-16.5-24h-5.6v24h-12.1V-13.4s.2,0,.2,0ZM424.8,15.5c2.7,0,5-.8,6.8-2.5s2.6-3.8,2.6-6.3-.2-2.2-.6-3.3-1-2-1.7-2.9c-.8-.8-1.7-1.5-2.9-2-1.2-.5-2.5-.8-4-.8h-11.4V15.5s11.2,0,11.2,0Z"/>
        <rect x="332" y="-13.4" width="40.6" height="11.1"/>
        <g>
          <polygon points="344.1 24.4 349.4 24.4 369.8 24.4 369.8 12.9 344.1 12.9 344.1 12.9 332 12.9 332 24.4 344.1 24.4"/>
          <polygon points="344.1 39.2 344.1 39.1 332 39.1 332 50.6 372.6 50.6 372.6 39.2 344.1 39.2"/>
        </g>
      </g>
      <g id="Layer_1_copy">
        <path class="cls-2" d="M4.5,2.7h20.3c2.2,0,4.3.4,6.2,1.1,1.9.7,3.6,1.7,5,2.9s2.5,2.7,3.4,4.3c.8,1.6,1.2,3.4,1.2,5.3,0,2.8-.7,5.1-2,6.9-1.3,1.9-3,3.3-5,4.2v.6c2.7,1,4.8,2.5,6.4,4.5,1.6,2.1,2.4,4.6,2.4,7.6s-.4,4.2-1.3,6c-.9,1.8-2.1,3.3-3.7,4.5-1.5,1.3-3.3,2.2-5.4,2.9s-4.3,1-6.6,1H4.4V2.7h0ZM24.1,23.9c2.3,0,4-.6,5.3-1.8,1.2-1.2,1.8-2.7,1.8-4.4s-.6-3.1-1.8-4.3c-1.2-1.2-2.9-1.8-5-1.8h-10.1v12.4h9.8ZM25.1,45.6c2.5,0,4.3-.6,5.7-1.8,1.3-1.2,2-2.8,2-4.7s-.7-3.5-2-4.8-3.3-1.9-5.9-1.9h-10.6v13.3h10.8Z"/>
        <path class="cls-2" d="M64.6,2.7h18.9c2.6,0,5,.4,7.1,1.2,2.1.8,4,2,5.5,3.4,1.5,1.4,2.7,3.2,3.5,5.2s1.2,4.2,1.2,6.6-.3,3.4-.9,4.9-1.4,2.9-2.4,4.1-2.2,2.3-3.6,3.3c-1.4.9-2.8,1.7-4.3,2.2v.5c0,0,13.8,19.9,13.8,19.9v.6h-11.1l-13.4-19.5h-4.6v19.5h-9.8V2.7h0ZM83.4,26.2c2.2,0,4-.7,5.5-2,1.4-1.4,2.1-3.1,2.1-5.1s-.2-1.8-.5-2.7c-.3-.9-.8-1.6-1.4-2.3s-1.4-1.2-2.4-1.6c-.9-.4-2-.6-3.2-.6h-9.2v14.4h9.1Z"/>
        <path class="cls-2" d="M124,2.7h9.8v51.9h-9.8V2.7Z"/>
        <path class="cls-2" d="M168.5,12v12h20.8v9.3h-20.8v12h23.1v9.3h-32.9V2.7h32.9v9.3h-23.1Z"/>
        <path class="cls-2" d="M215.1,2.7h32.9v9.3h-23.1v12.6h20.8v9.3h-20.8v20.7h-9.8V2.7h0Z"/>
        <path class="cls-2" d="M369.4,2.7h18.9c2.6,0,5,.4,7.1,1.2,2.1.8,4,2,5.5,3.4,1.5,1.4,2.7,3.2,3.5,5.2s1.2,4.2,1.2,6.6-.3,3.4-.9,4.9-1.4,2.9-2.4,4.1-2.2,2.3-3.6,3.3c-1.4.9-2.8,1.7-4.3,2.2v.5c-.1,0,13.8,19.9,13.8,19.9v.6h-11.2l-13.4-19.5h-4.6v19.5h-9.8V2.7h.2ZM388.3,26.2c2.2,0,4-.7,5.5-2,1.4-1.4,2.1-3.1,2.1-5.1s-.2-1.8-.5-2.7c-.3-.9-.8-1.6-1.4-2.3s-1.4-1.2-2.4-1.6c-.9-.4-2-.6-3.2-.6h-9.2v14.4h9.1Z"/>
        <rect class="cls-2" x="265" y="2.7" width="84.9" height="9"/>
        <g>
          <polygon class="cls-2" points="274.8 33.3 279.1 33.3 349.6 33.3 349.6 24 274.8 24 274.8 24 265 24 265 33.3 274.8 33.3"/>
          <polygon class="cls-2" points="274.8 45.4 274.8 45.3 265 45.3 265 54.6 349.9 54.6 349.9 45.4 274.8 45.4"/>
        </g>
      </g>
    </g>
  </g>
</svg>